<svg width="99" height="28" viewBox="0 0 99 28" fill="none" xmlns="http://www.w3.org/2000/svg">
<path d="M40.6211 23H36.5078L42.8809 4.61719H47.7812L54.1289 23H50.041L48.6572 18.7598H42.0049L40.6211 23ZM42.9697 15.7891H47.6924L45.3945 8.75586H45.2676L42.9697 15.7891ZM59.8926 4.61719V23H56.1348V4.61719H59.8926ZM62.8125 23V9.21289H66.5703V23H62.8125ZM62.6348 5.50586C62.6348 4.43945 63.5615 3.58887 64.6914 3.57617C65.8086 3.58887 66.7354 4.43945 66.7227 5.50586C66.7354 6.54688 65.8086 7.41016 64.6914 7.41016C63.5615 7.41016 62.6348 6.54688 62.6348 5.50586ZM75.6855 23.2793C71.5215 23.2666 68.9189 20.4102 68.9316 16.1445C68.9189 11.8916 71.5215 9.03516 75.6855 9.03516C79.8623 9.03516 82.4521 11.8916 82.4648 16.1445C82.4521 20.4102 79.8623 23.2666 75.6855 23.2793ZM72.7402 16.1445C72.7402 18.5566 73.7432 20.3467 75.7109 20.3594C77.6279 20.3467 78.6436 18.5566 78.6309 16.1445C78.6436 13.7197 77.6279 11.9043 75.7109 11.9043C73.7432 11.9043 72.7402 13.7197 72.7402 16.1445ZM88.584 15.0273V23H84.8262V9.21289H88.4062V11.625H88.5586C89.1807 10.0381 90.6533 9.03516 92.6973 9.03516C95.5791 9.03516 97.458 11.0029 97.4453 14.2148V23H93.7129V14.875C93.7002 13.1738 92.7861 12.1582 91.2246 12.1582C89.6631 12.1582 88.584 13.2119 88.584 15.0273Z" fill="#242424"/>
<path d="M18.3752 3H10.5564C9.95957 3 9.41582 3.34062 9.15332 3.87812L14.1564 12.6687L18.6564 3.45C18.7564 3.24375 18.6064 3 18.3752 3Z" fill="#94BDFF"/>
<path d="M9.15026 3.87814L0.0315087 22.55C-0.0684913 22.7563 0.0815087 23 0.312759 23H8.13151C8.72838 23 9.27213 22.6594 9.53463 22.1219L14.1503 12.6688L9.15026 3.87814Z" fill="#4982DF"/>
<path d="M19.2598 22.1031C19.5723 22.6594 20.116 23 20.7129 23H28.5316C28.7629 23 28.9129 22.7594 28.8129 22.55L23.7566 13.5625C23.4941 13.025 22.9504 12.6844 22.3535 12.6844L14.1504 12.6656" fill="#4982DF"/>
</svg>
